<?xml version="1.0" encoding="utf-8"?>
<!-- Generator: Adobe Illustrator 15.0.2, SVG Export Plug-In . SVG Version: 6.00 Build 0)  -->
<!DOCTYPE svg PUBLIC "-//W3C//DTD SVG 1.1//EN" "http://www.w3.org/Graphics/SVG/1.1/DTD/svg11.dtd">
<svg version="1.1" id="Layer_1" xmlns="http://www.w3.org/2000/svg" xmlns:xlink="http://www.w3.org/1999/xlink"
	 width="60px" height="60px" viewBox="0 0 0 60">
<g>
	<path d="M16.176,6.865c0.736,0,1.528,0.008,2.376,0.023c0.849,0.017,1.688,0.064,2.521,0.145c0.832,0.079,1.608,0.199,2.328,0.359
		c0.72,0.161,1.336,0.401,1.848,0.72c1.12,0.673,2.071,1.602,2.856,2.784c0.784,1.186,1.176,2.641,1.176,4.368
		c0,1.824-0.44,3.4-1.32,4.729c-0.88,1.327-2.136,2.312-3.768,2.951v0.097c2.112,0.449,3.728,1.409,4.848,2.88
		c1.12,1.472,1.681,3.264,1.681,5.376c0,1.248-0.226,2.464-0.673,3.647c-0.447,1.185-1.111,2.232-1.991,3.145
		c-0.882,0.912-1.969,1.647-3.265,2.208c-1.296,0.56-2.792,0.84-4.487,0.84H3.744V6.865H16.176z"/>
		
	<path d="M17.424,21.6
		c2.593,0,4.456-0.456,5.593-1.368c1.135-0.912,1.704-2.279,1.704-4.104c0-1.216-0.192-2.176-0.576-2.88
		C23.76,12.544,23.232,12,22.56,11.616c-0.672-0.385-1.448-0.632-2.328-0.744s-1.816-0.168-2.809-0.168H8.304V21.6H17.424z"/>
		
	<path d="M19.728,37.296c2.016,0,3.592-0.544,4.728-1.632c1.135-1.087,1.704-2.593,1.704-4.513c0-1.119-0.208-2.048-0.624-2.783
		c-0.417-0.736-0.968-1.32-1.656-1.752c-0.688-0.433-1.479-0.736-2.376-0.912c-0.896-0.176-1.823-0.265-2.783-0.265H8.304v11.856
		H19.728z"/>
</g>
</svg>
