<?xml version="1.0" encoding="utf-8"?>
<!-- Generator: Adobe Illustrator 15.0.2, SVG Export Plug-In . SVG Version: 6.00 Build 0)  -->
<!DOCTYPE svg PUBLIC "-//W3C//DTD SVG 1.1//EN" "http://www.w3.org/Graphics/SVG/1.1/DTD/svg11.dtd">
<svg version="1.1" id="Layer_1" xmlns="http://www.w3.org/2000/svg" xmlns:xlink="http://www.w3.org/1999/xlink"
	 width="60px" height="60px" viewBox="0 0 0 60">
<g>
	<path d="M48.719,16.32v3.647h0.096c1.855-2.814,4.528-4.224,8.017-4.224c1.535,0,2.928,0.32,4.176,0.96
		c1.248,0.642,2.128,1.729,2.64,3.264c0.832-1.344,1.928-2.383,3.288-3.119c1.359-0.736,2.856-1.104,4.488-1.104
		c1.248,0,2.376,0.137,3.384,0.408c1.008,0.271,1.872,0.696,2.592,1.271c0.72,0.576,1.279,1.32,1.681,2.232
		c0.399,0.912,0.6,2.008,0.6,3.288v18.191h-4.08V24.864c0-0.768-0.064-1.488-0.192-2.16s-0.368-1.255-0.72-1.752
		c-0.353-0.496-0.84-0.888-1.464-1.176s-1.433-0.433-2.424-0.433c-2.017,0-3.601,0.576-4.752,1.729
		c-1.152,1.152-1.729,2.688-1.729,4.608v15.455h-4.08V24.864c0-0.799-0.071-1.536-0.216-2.208c-0.144-0.672-0.392-1.255-0.744-1.752
		c-0.353-0.496-0.824-0.88-1.416-1.152c-0.592-0.271-1.352-0.408-2.279-0.408c-1.185,0-2.201,0.24-3.048,0.721
		c-0.848,0.479-1.536,1.056-2.064,1.728c-0.528,0.672-0.912,1.368-1.152,2.088c-0.24,0.721-0.36,1.32-0.36,1.801v15.455h-4.08V16.32
		H48.719z"/>	
</g>
</svg>
