<?xml version="1.0" encoding="utf-8"?>
<!-- Generator: Adobe Illustrator 15.0.2, SVG Export Plug-In . SVG Version: 6.00 Build 0)  -->
<!DOCTYPE svg PUBLIC "-//W3C//DTD SVG 1.1//EN" "http://www.w3.org/Graphics/SVG/1.1/DTD/svg11.dtd">
<svg version="1.1" id="Layer_1" xmlns="http://www.w3.org/2000/svg" xmlns:xlink="http://www.w3.org/1999/xlink"
	 width="60px" height="60px" viewBox="0 0 0 60">
<g>
	<path d="M37.296,35.592c0.384,0.624,0.888,1.121,1.512,1.488c0.624,0.368,1.328,0.632,2.112,0.792
		c0.784,0.161,1.592,0.24,2.424,0.24c0.64,0,1.312-0.048,2.016-0.145c0.704-0.096,1.353-0.271,1.944-0.527
		c0.592-0.256,1.08-0.632,1.464-1.128s0.576-1.128,0.576-1.896c0-1.056-0.401-1.854-1.2-2.399c-0.8-0.543-1.8-0.984-3-1.32
		s-2.504-0.64-3.912-0.912c-1.407-0.271-2.712-0.655-3.912-1.152c-1.199-0.496-2.199-1.191-3-2.088
		c-0.8-0.896-1.199-2.144-1.199-3.744c0-1.248,0.279-2.319,0.84-3.216c0.56-0.896,1.28-1.624,2.16-2.184
		c0.879-0.561,1.872-0.977,2.976-1.248c1.104-0.271,2.2-0.408,3.288-0.408c1.408,0,2.704,0.12,3.888,0.36
		c1.185,0.239,2.232,0.655,3.145,1.248s1.64,1.392,2.184,2.399c0.543,1.008,0.864,2.265,0.96,3.769h-4.08
		c-0.063-0.799-0.271-1.464-0.624-1.992s-0.8-0.952-1.344-1.272c-0.545-0.319-1.145-0.552-1.8-0.695
		c-0.656-0.145-1.32-0.217-1.992-0.217c-0.608,0-1.224,0.049-1.848,0.145s-1.192,0.264-1.704,0.504s-0.928,0.56-1.248,0.96
		s-0.48,0.92-0.48,1.561c0,0.703,0.248,1.288,0.744,1.752s1.128,0.848,1.896,1.151c0.768,0.306,1.632,0.562,2.592,0.769
		c0.96,0.208,1.92,0.425,2.88,0.647c1.023,0.226,2.023,0.497,3,0.816c0.976,0.319,1.839,0.744,2.592,1.271
		c0.751,0.528,1.36,1.192,1.824,1.992s0.696,1.792,0.696,2.977c0,1.504-0.312,2.752-0.937,3.743c-0.624,0.992-1.439,1.792-2.448,2.4
		c-1.008,0.608-2.144,1.032-3.407,1.272c-1.266,0.239-2.521,0.359-3.769,0.359c-1.376,0-2.688-0.144-3.936-0.432
		s-2.353-0.76-3.312-1.416s-1.728-1.521-2.304-2.592c-0.576-1.072-0.896-2.376-0.96-3.912h4.08
		C36.704,34.208,36.912,34.968,37.296,35.592z"/>
</g>
</svg>
