<?xml version="1.0" encoding="utf-8"?>
<!-- Generator: Adobe Illustrator 15.0.2, SVG Export Plug-In . SVG Version: 6.00 Build 0)  -->
<!DOCTYPE svg PUBLIC "-//W3C//DTD SVG 1.1//EN" "http://www.w3.org/Graphics/SVG/1.1/DTD/svg11.dtd">
<svg version="1.1" id="Layer_1" xmlns="http://www.w3.org/2000/svg" xmlns:xlink="http://www.w3.org/1999/xlink"
	 width="60px" height="60px" viewBox="0 0 0 60">
<g>
	<path d="M54.432,41.135V37.2h-0.097c-0.863,1.535-1.968,2.663-3.312,3.384c-1.344,0.721-2.928,1.08-4.752,1.08
		c-1.632,0-2.993-0.217-4.08-0.647c-1.089-0.433-1.968-1.049-2.64-1.849c-0.673-0.8-1.145-1.752-1.416-2.855
		c-0.272-1.104-0.408-2.328-0.408-3.672V16.32h4.08v16.799c0,1.536,0.447,2.753,1.344,3.648s2.128,1.344,3.696,1.344
		c1.248,0,2.327-0.191,3.239-0.575c0.912-0.385,1.672-0.928,2.28-1.633c0.606-0.703,1.062-1.527,1.367-2.472
		c0.305-0.943,0.456-1.977,0.456-3.097V16.32h4.08v24.815H54.432z"/>
</g>
</svg>
