<?xml version="1.0" encoding="utf-8"?>
<!-- Generator: Adobe Illustrator 15.0.2, SVG Export Plug-In . SVG Version: 6.00 Build 0)  -->
<!DOCTYPE svg PUBLIC "-//W3C//DTD SVG 1.1//EN" "http://www.w3.org/Graphics/SVG/1.1/DTD/svg11.dtd">
<svg version="1.1" id="Layer_1" xmlns="http://www.w3.org/2000/svg" xmlns:xlink="http://www.w3.org/1999/xlink" x="0px" y="0px"
	 width="60px" height="60px" viewBox="0 0 0 60" >
<g>
	<path d="M42.504,47.472c-0.465,0.832-0.978,1.512-1.536,2.04c-0.561,0.527-1.176,0.911-1.848,1.151
		c-0.672,0.239-1.473,0.359-2.4,0.359c-0.479,0-0.96-0.032-1.44-0.097c-0.479-0.063-0.943-0.176-1.392-0.336v-3.743
		c0.384,0.128,0.775,0.256,1.176,0.384s0.809,0.191,1.225,0.191c0.832,0,1.504-0.191,2.016-0.575
		c0.511-0.385,0.96-0.944,1.344-1.681l1.681-4.176l-9.841-24.672h4.608l7.248,20.303h0.096l6.96-20.303h4.32l-10.8,28.08
		C43.439,45.615,42.967,46.64,42.504,47.472z"/>
</g>
</svg>
